<mxfile host="www.draw.io" modified="2020-01-17T17:42:22.039Z" agent="Mozilla/5.0 (Windows NT 10.0; Win64; x64; rv:72.0) Gecko/20100101 Firefox/72.0" etag="s26r1MlGzaxTzRnKuoYx" version="12.5.4" type="github">
  <diagram id="C5RBs43oDa-KdzZeNtuy" name="Page-1">
    <mxGraphModel dx="602" dy="478" grid="1" gridSize="10" guides="1" tooltips="1" connect="1" arrows="1" fold="1" page="1" pageScale="1" pageWidth="827" pageHeight="1169" math="0" shadow="0">
      <root>
        <mxCell id="WIyWlLk6GJQsqaUBKTNV-0"/>
        <mxCell id="WIyWlLk6GJQsqaUBKTNV-1" parent="WIyWlLk6GJQsqaUBKTNV-0"/>
        <mxCell id="WlS0nSgw3Jyz-_eudb85-21" value="" style="rounded=0;html=1;jettySize=auto;orthogonalLoop=1;fontSize=11;endArrow=block;endFill=0;endSize=8;strokeWidth=1;shadow=0;labelBackgroundColor=none;" parent="WIyWlLk6GJQsqaUBKTNV-1" edge="1">
          <mxGeometry relative="1" as="geometry">
            <mxPoint x="460.0014285714287" y="851.4285714285713" as="sourcePoint"/>
            <mxPoint x="460.0014285714287" y="901.7142857142858" as="targetPoint"/>
          </mxGeometry>
        </mxCell>
        <mxCell id="WlS0nSgw3Jyz-_eudb85-14" value="" style="rounded=0;html=1;jettySize=auto;orthogonalLoop=1;fontSize=11;endArrow=block;endFill=0;endSize=8;strokeWidth=1;shadow=0;labelBackgroundColor=none;" parent="WIyWlLk6GJQsqaUBKTNV-1" edge="1">
          <mxGeometry relative="1" as="geometry">
            <mxPoint x="200.5" y="340" as="sourcePoint"/>
            <mxPoint x="200.5" y="390" as="targetPoint"/>
          </mxGeometry>
        </mxCell>
        <mxCell id="WIyWlLk6GJQsqaUBKTNV-2" value="" style="rounded=0;html=1;jettySize=auto;orthogonalLoop=1;fontSize=11;endArrow=block;endFill=0;endSize=8;strokeWidth=1;shadow=0;labelBackgroundColor=none;" parent="WIyWlLk6GJQsqaUBKTNV-1" source="WIyWlLk6GJQsqaUBKTNV-3" target="WIyWlLk6GJQsqaUBKTNV-6" edge="1">
          <mxGeometry relative="1" as="geometry"/>
        </mxCell>
        <mxCell id="WIyWlLk6GJQsqaUBKTNV-3" value="Brief presented to marcom council " style="rounded=1;whiteSpace=wrap;html=1;fontSize=12;glass=0;strokeWidth=1;shadow=0;labelBackgroundColor=none;" parent="WIyWlLk6GJQsqaUBKTNV-1" vertex="1">
          <mxGeometry x="141" y="80" width="120" height="40" as="geometry"/>
        </mxCell>
        <mxCell id="WIyWlLk6GJQsqaUBKTNV-6" value="Approved" style="rhombus;whiteSpace=wrap;html=1;shadow=0;fontFamily=Helvetica;fontSize=12;align=center;strokeWidth=1;spacing=6;spacingTop=-4;fillColor=#ffff88;strokeColor=#36393d;" parent="WIyWlLk6GJQsqaUBKTNV-1" vertex="1">
          <mxGeometry x="151" y="170" width="100" height="80" as="geometry"/>
        </mxCell>
        <mxCell id="WIyWlLk6GJQsqaUBKTNV-7" value="Not assigned" style="rounded=1;whiteSpace=wrap;html=1;fontSize=12;glass=0;strokeWidth=1;shadow=0;" parent="WIyWlLk6GJQsqaUBKTNV-1" vertex="1">
          <mxGeometry x="305" y="190" width="120" height="40" as="geometry"/>
        </mxCell>
        <mxCell id="WlS0nSgw3Jyz-_eudb85-1" value="Assigned to a BI Intake, a BI Dev and a Marcom prime" style="rounded=1;whiteSpace=wrap;html=1;fontSize=12;glass=0;strokeWidth=1;shadow=0;" parent="WIyWlLk6GJQsqaUBKTNV-1" vertex="1">
          <mxGeometry x="121" y="300" width="160" height="50" as="geometry"/>
        </mxCell>
        <mxCell id="WlS0nSgw3Jyz-_eudb85-6" value="" style="rounded=0;html=1;jettySize=auto;orthogonalLoop=1;fontSize=11;endArrow=block;endFill=0;endSize=8;strokeWidth=1;shadow=0;labelBackgroundColor=none;" parent="WIyWlLk6GJQsqaUBKTNV-1" edge="1">
          <mxGeometry relative="1" as="geometry">
            <mxPoint x="201.5" y="250" as="sourcePoint"/>
            <mxPoint x="201.5" y="300" as="targetPoint"/>
          </mxGeometry>
        </mxCell>
        <mxCell id="WlS0nSgw3Jyz-_eudb85-13" value="&lt;div&gt;Marketing plans kickoff call;&lt;/div&gt;&lt;div&gt;To be included : BI Intake, BI Dev, Marcom &lt;/div&gt;" style="rounded=1;whiteSpace=wrap;html=1;fontSize=12;glass=0;strokeWidth=1;shadow=0;" parent="WIyWlLk6GJQsqaUBKTNV-1" vertex="1">
          <mxGeometry x="121" y="390" width="160" height="60" as="geometry"/>
        </mxCell>
        <mxCell id="WlS0nSgw3Jyz-_eudb85-17" value="" style="rounded=0;html=1;jettySize=auto;orthogonalLoop=1;fontSize=11;endArrow=block;endFill=0;endSize=8;strokeWidth=1;shadow=0;labelBackgroundColor=none;edgeStyle=orthogonalEdgeStyle;entryX=0.5;entryY=0;entryDx=0;entryDy=0;" parent="WIyWlLk6GJQsqaUBKTNV-1" source="WlS0nSgw3Jyz-_eudb85-18" target="WlS0nSgw3Jyz-_eudb85-32" edge="1">
          <mxGeometry relative="1" as="geometry">
            <mxPoint x="370" y="540" as="sourcePoint"/>
            <mxPoint x="460" y="590" as="targetPoint"/>
            <Array as="points">
              <mxPoint x="460" y="541"/>
            </Array>
          </mxGeometry>
        </mxCell>
        <mxCell id="WlS0nSgw3Jyz-_eudb85-18" value="&lt;div&gt;BI Intake to document requirements in the BR document&lt;br&gt;&lt;/div&gt;&lt;div&gt;Collaboration with Marketing Prime&lt;/div&gt;" style="rounded=1;whiteSpace=wrap;html=1;fontSize=12;glass=0;strokeWidth=1;shadow=0;" parent="WIyWlLk6GJQsqaUBKTNV-1" vertex="1">
          <mxGeometry x="122" y="502" width="160" height="78" as="geometry"/>
        </mxCell>
        <mxCell id="WlS0nSgw3Jyz-_eudb85-19" value="" style="rounded=0;html=1;jettySize=auto;orthogonalLoop=1;fontSize=11;endArrow=block;endFill=0;endSize=8;strokeWidth=1;shadow=0;labelBackgroundColor=none;exitX=0.5;exitY=1;exitDx=0;exitDy=0;" parent="WIyWlLk6GJQsqaUBKTNV-1" source="WlS0nSgw3Jyz-_eudb85-13" edge="1">
          <mxGeometry relative="1" as="geometry">
            <mxPoint x="200.43" y="470" as="sourcePoint"/>
            <mxPoint x="201" y="500" as="targetPoint"/>
          </mxGeometry>
        </mxCell>
        <mxCell id="WlS0nSgw3Jyz-_eudb85-22" value="BI Intake submit BR to BI Dev" style="rounded=1;whiteSpace=wrap;html=1;fontSize=12;glass=0;strokeWidth=1;shadow=0;" parent="WIyWlLk6GJQsqaUBKTNV-1" vertex="1">
          <mxGeometry x="400" y="810" width="120" height="40" as="geometry"/>
        </mxCell>
        <mxCell id="GRO3PZ2oIofHFS6x7ogk-1" style="rounded=0;orthogonalLoop=1;jettySize=auto;html=1;labelBackgroundColor=#ffffff;fontSize=12;entryX=1;entryY=0.5;entryDx=0;entryDy=0;endArrow=block;endFill=0;" parent="WIyWlLk6GJQsqaUBKTNV-1" target="thONTzHvAQTm7MkxNFuJ-1" edge="1">
          <mxGeometry relative="1" as="geometry">
            <mxPoint x="370" y="943" as="targetPoint"/>
            <mxPoint x="406" y="943" as="sourcePoint"/>
          </mxGeometry>
        </mxCell>
        <mxCell id="WlS0nSgw3Jyz-_eudb85-24" value="&lt;font style=&quot;font-size: 11px&quot;&gt;Requirements Approved ?&lt;/font&gt;" style="rhombus;whiteSpace=wrap;html=1;shadow=0;fontFamily=Helvetica;fontSize=12;align=center;strokeWidth=1;spacing=6;spacingTop=-4;fillColor=#ffff88;strokeColor=#36393d;" parent="WIyWlLk6GJQsqaUBKTNV-1" vertex="1">
          <mxGeometry x="410" y="903" width="100" height="80" as="geometry"/>
        </mxCell>
        <mxCell id="WlS0nSgw3Jyz-_eudb85-26" value="" style="rounded=0;html=1;jettySize=auto;orthogonalLoop=1;fontSize=11;endArrow=block;endFill=0;endSize=8;strokeWidth=1;shadow=0;labelBackgroundColor=none;" parent="WIyWlLk6GJQsqaUBKTNV-1" edge="1">
          <mxGeometry relative="1" as="geometry">
            <mxPoint x="459.8" y="982" as="sourcePoint"/>
            <mxPoint x="459.8" y="1032" as="targetPoint"/>
          </mxGeometry>
        </mxCell>
        <mxCell id="WlS0nSgw3Jyz-_eudb85-27" value="Yes" style="text;html=1;align=center;verticalAlign=middle;resizable=0;points=[];autosize=1;fillColor=#ffffff;" parent="WIyWlLk6GJQsqaUBKTNV-1" vertex="1">
          <mxGeometry x="440" y="990" width="40" height="20" as="geometry"/>
        </mxCell>
        <mxCell id="WlS0nSgw3Jyz-_eudb85-32" value="Imput tentative imelines " style="rounded=1;whiteSpace=wrap;html=1;fontSize=12;glass=0;strokeWidth=1;shadow=0;" parent="WIyWlLk6GJQsqaUBKTNV-1" vertex="1">
          <mxGeometry x="400" y="600" width="120" height="28" as="geometry"/>
        </mxCell>
        <mxCell id="WlS0nSgw3Jyz-_eudb85-33" value="" style="rounded=0;html=1;jettySize=auto;orthogonalLoop=1;fontSize=11;endArrow=block;endFill=0;endSize=8;strokeWidth=1;shadow=0;labelBackgroundColor=none;" parent="WIyWlLk6GJQsqaUBKTNV-1" target="WlS0nSgw3Jyz-_eudb85-35" edge="1">
          <mxGeometry relative="1" as="geometry">
            <mxPoint x="459.74285714285713" y="628.1142857142858" as="sourcePoint"/>
            <mxPoint x="459.74285714285713" y="678.4" as="targetPoint"/>
          </mxGeometry>
        </mxCell>
        <mxCell id="WlS0nSgw3Jyz-_eudb85-35" value="&lt;font style=&quot;font-size: 11px&quot;&gt;If SMS - Is there space in the SMS calender? &lt;/font&gt;" style="rhombus;whiteSpace=wrap;html=1;shadow=0;fontFamily=Helvetica;fontSize=12;align=center;strokeWidth=1;spacing=6;spacingTop=5;fillColor=#ffff88;strokeColor=#36393d;" parent="WIyWlLk6GJQsqaUBKTNV-1" vertex="1">
          <mxGeometry x="400" y="664" width="120" height="96" as="geometry"/>
        </mxCell>
        <mxCell id="WlS0nSgw3Jyz-_eudb85-36" value="" style="rounded=0;html=1;jettySize=auto;orthogonalLoop=1;fontSize=11;endArrow=block;endFill=0;endSize=8;strokeWidth=1;shadow=0;labelBackgroundColor=none;" parent="WIyWlLk6GJQsqaUBKTNV-1" edge="1">
          <mxGeometry relative="1" as="geometry">
            <mxPoint x="460" y="760" as="sourcePoint"/>
            <mxPoint x="459.8" y="810" as="targetPoint"/>
          </mxGeometry>
        </mxCell>
        <mxCell id="WlS0nSgw3Jyz-_eudb85-37" value="Yes" style="text;html=1;align=center;verticalAlign=middle;resizable=0;points=[];autosize=1;labelBackgroundColor=#ffffff;" parent="WIyWlLk6GJQsqaUBKTNV-1" vertex="1">
          <mxGeometry x="440" y="770" width="40" height="20" as="geometry"/>
        </mxCell>
        <mxCell id="WlS0nSgw3Jyz-_eudb85-38" value="No" style="edgeStyle=orthogonalEdgeStyle;rounded=0;html=1;jettySize=auto;orthogonalLoop=1;fontSize=12;endArrow=block;endFill=0;endSize=8;strokeWidth=1;shadow=0;labelBackgroundColor=#ffffff;exitX=1;exitY=0.5;exitDx=0;exitDy=0;entryX=1;entryY=0.357;entryDx=0;entryDy=0;entryPerimeter=0;" parent="WIyWlLk6GJQsqaUBKTNV-1" source="WlS0nSgw3Jyz-_eudb85-35" target="WlS0nSgw3Jyz-_eudb85-32" edge="1">
          <mxGeometry x="-0.6842" relative="1" as="geometry">
            <mxPoint as="offset"/>
            <mxPoint x="530" y="694" as="sourcePoint"/>
            <mxPoint x="520" y="610" as="targetPoint"/>
            <Array as="points">
              <mxPoint x="650" y="712"/>
              <mxPoint x="650" y="610"/>
            </Array>
          </mxGeometry>
        </mxCell>
        <mxCell id="WlS0nSgw3Jyz-_eudb85-47" value="No" style="edgeStyle=orthogonalEdgeStyle;rounded=0;html=1;jettySize=auto;orthogonalLoop=1;fontSize=12;endArrow=block;endFill=0;endSize=8;strokeWidth=1;shadow=0;labelBackgroundColor=#ffffff;spacing=2;" parent="WIyWlLk6GJQsqaUBKTNV-1" source="WlS0nSgw3Jyz-_eudb85-48" target="WlS0nSgw3Jyz-_eudb85-32" edge="1">
          <mxGeometry x="-0.8082" relative="1" as="geometry">
            <mxPoint as="offset"/>
            <mxPoint x="530" y="610" as="targetPoint"/>
            <Array as="points">
              <mxPoint x="650" y="1070"/>
              <mxPoint x="650" y="610"/>
            </Array>
          </mxGeometry>
        </mxCell>
        <mxCell id="WlS0nSgw3Jyz-_eudb85-48" value="Timelines Approved?" style="rhombus;whiteSpace=wrap;html=1;shadow=0;fontFamily=Helvetica;fontSize=12;align=center;strokeWidth=1;spacing=6;spacingTop=-4;fillColor=#ffff88;strokeColor=#36393d;" parent="WIyWlLk6GJQsqaUBKTNV-1" vertex="1">
          <mxGeometry x="410" y="1030" width="100" height="80" as="geometry"/>
        </mxCell>
        <mxCell id="WlS0nSgw3Jyz-_eudb85-49" value="" style="rounded=0;html=1;jettySize=auto;orthogonalLoop=1;fontSize=11;endArrow=block;endFill=0;endSize=8;strokeWidth=1;shadow=0;labelBackgroundColor=none;" parent="WIyWlLk6GJQsqaUBKTNV-1" edge="1">
          <mxGeometry relative="1" as="geometry">
            <mxPoint x="459.5" y="1110" as="sourcePoint"/>
            <mxPoint x="459.5" y="1160" as="targetPoint"/>
          </mxGeometry>
        </mxCell>
        <mxCell id="WlS0nSgw3Jyz-_eudb85-50" value="Yes" style="text;html=1;align=center;verticalAlign=middle;resizable=0;points=[];autosize=1;labelBackgroundColor=#ffffff;" parent="WIyWlLk6GJQsqaUBKTNV-1" vertex="1">
          <mxGeometry x="440" y="1120" width="40" height="20" as="geometry"/>
        </mxCell>
        <mxCell id="WlS0nSgw3Jyz-_eudb85-52" value="&lt;div&gt;Submit finalized BR to Stakeholders: Marketing, Marcom, Contact strategy&lt;br&gt;&lt;/div&gt;" style="rounded=1;whiteSpace=wrap;html=1;fontSize=12;glass=0;strokeWidth=1;shadow=0;" parent="WIyWlLk6GJQsqaUBKTNV-1" vertex="1">
          <mxGeometry x="400" y="1160" width="120" height="80" as="geometry"/>
        </mxCell>
        <mxCell id="WlS0nSgw3Jyz-_eudb85-53" value="" style="rounded=0;html=1;jettySize=auto;orthogonalLoop=1;fontSize=11;endArrow=block;endFill=0;endSize=8;strokeWidth=1;shadow=0;labelBackgroundColor=none;entryX=0.5;entryY=0;entryDx=0;entryDy=0;" parent="WIyWlLk6GJQsqaUBKTNV-1" edge="1">
          <mxGeometry relative="1" as="geometry">
            <mxPoint x="460" y="1240" as="sourcePoint"/>
            <mxPoint x="459.93023255813955" y="1269.953488372093" as="targetPoint"/>
          </mxGeometry>
        </mxCell>
        <mxCell id="WlS0nSgw3Jyz-_eudb85-54" value="BR Approved" style="rhombus;whiteSpace=wrap;html=1;shadow=0;fontFamily=Helvetica;fontSize=12;align=center;strokeWidth=1;spacing=6;spacingTop=-4;fillColor=#ffff88;strokeColor=#36393d;" parent="WIyWlLk6GJQsqaUBKTNV-1" vertex="1">
          <mxGeometry x="410" y="1269" width="100" height="80" as="geometry"/>
        </mxCell>
        <mxCell id="WlS0nSgw3Jyz-_eudb85-55" value="" style="rounded=0;html=1;jettySize=auto;orthogonalLoop=1;fontSize=11;endArrow=block;endFill=0;endSize=8;strokeWidth=1;shadow=0;labelBackgroundColor=none;edgeStyle=orthogonalEdgeStyle;" parent="WIyWlLk6GJQsqaUBKTNV-1" edge="1">
          <mxGeometry relative="1" as="geometry">
            <mxPoint x="459.77" y="1349" as="sourcePoint"/>
            <mxPoint x="459.77" y="1399" as="targetPoint"/>
          </mxGeometry>
        </mxCell>
        <mxCell id="WlS0nSgw3Jyz-_eudb85-56" value="Yes" style="text;html=1;align=center;verticalAlign=middle;resizable=0;points=[];autosize=1;labelBackgroundColor=#ffffff;" parent="WIyWlLk6GJQsqaUBKTNV-1" vertex="1">
          <mxGeometry x="441" y="1360" width="40" height="20" as="geometry"/>
        </mxCell>
        <mxCell id="WlS0nSgw3Jyz-_eudb85-57" value="&lt;div&gt;BR Lock down&lt;br&gt;&lt;/div&gt;&lt;div&gt;FYI email to stakeholders and all stakeholder&#39;s Directors&amp;nbsp; &lt;/div&gt;" style="rounded=1;whiteSpace=wrap;html=1;fontSize=12;glass=0;strokeWidth=1;shadow=0;" parent="WIyWlLk6GJQsqaUBKTNV-1" vertex="1">
          <mxGeometry x="400" y="1399" width="120" height="71" as="geometry"/>
        </mxCell>
        <mxCell id="WlS0nSgw3Jyz-_eudb85-62" value="No" style="rounded=0;html=1;jettySize=auto;orthogonalLoop=1;fontSize=12;endArrow=block;endFill=0;endSize=8;strokeWidth=1;shadow=0;labelBackgroundColor=#ffffff;" parent="WIyWlLk6GJQsqaUBKTNV-1" edge="1">
          <mxGeometry x="-0.1765" relative="1" as="geometry">
            <mxPoint as="offset"/>
            <mxPoint x="411.11" y="1308.67" as="sourcePoint"/>
            <mxPoint x="350" y="1309" as="targetPoint"/>
          </mxGeometry>
        </mxCell>
        <mxCell id="WlS0nSgw3Jyz-_eudb85-68" value="" style="rounded=0;html=1;jettySize=auto;orthogonalLoop=1;fontSize=11;endArrow=block;endFill=0;endSize=8;strokeWidth=1;shadow=0;labelBackgroundColor=none;edgeStyle=orthogonalEdgeStyle;" parent="WIyWlLk6GJQsqaUBKTNV-1" target="WlS0nSgw3Jyz-_eudb85-18" edge="1">
          <mxGeometry relative="1" as="geometry">
            <mxPoint x="200" y="1309" as="sourcePoint"/>
            <mxPoint x="220" y="570" as="targetPoint"/>
            <Array as="points">
              <mxPoint x="20" y="1309"/>
              <mxPoint x="20" y="541"/>
            </Array>
          </mxGeometry>
        </mxCell>
        <mxCell id="thONTzHvAQTm7MkxNFuJ-1" value="&lt;div style=&quot;font-size: 11px;&quot;&gt;&lt;font style=&quot;font-size: 11px;&quot;&gt;Major changes&lt;br style=&quot;font-size: 11px;&quot;&gt;&lt;/font&gt;&lt;/div&gt;&lt;div style=&quot;font-size: 11px;&quot;&gt;&lt;font style=&quot;font-size: 11px;&quot;&gt;(eg : Data unavailability)&lt;/font&gt;&lt;/div&gt;" style="rhombus;whiteSpace=wrap;html=1;shadow=0;fontFamily=Helvetica;fontSize=11;align=center;strokeWidth=1;spacing=1;spacingTop=-18;fillColor=#ffff88;strokeColor=#36393d;" parent="WIyWlLk6GJQsqaUBKTNV-1" vertex="1">
          <mxGeometry x="210" y="883.38" width="140" height="119.75" as="geometry"/>
        </mxCell>
        <mxCell id="thONTzHvAQTm7MkxNFuJ-4" value="" style="rounded=0;html=1;jettySize=auto;orthogonalLoop=1;fontSize=11;endArrow=block;endFill=0;endSize=8;strokeWidth=1;shadow=0;labelBackgroundColor=none;edgeStyle=orthogonalEdgeStyle;exitX=0;exitY=0.5;exitDx=0;exitDy=0;" parent="WIyWlLk6GJQsqaUBKTNV-1" source="thONTzHvAQTm7MkxNFuJ-1" target="WlS0nSgw3Jyz-_eudb85-18" edge="1">
          <mxGeometry relative="1" as="geometry">
            <mxPoint x="240" y="943" as="sourcePoint"/>
            <mxPoint x="220" y="553" as="targetPoint"/>
            <Array as="points">
              <mxPoint x="20" y="943"/>
              <mxPoint x="20" y="541"/>
            </Array>
          </mxGeometry>
        </mxCell>
        <mxCell id="thONTzHvAQTm7MkxNFuJ-5" value="Yes" style="text;html=1;align=center;verticalAlign=middle;resizable=0;points=[];labelBackgroundColor=#ffffff;fontSize=14;spacingLeft=7;spacingRight=5;" parent="thONTzHvAQTm7MkxNFuJ-4" vertex="1" connectable="0">
          <mxGeometry x="-0.1031" y="-1" relative="1" as="geometry">
            <mxPoint x="129.86" y="121.28999999999999" as="offset"/>
          </mxGeometry>
        </mxCell>
        <mxCell id="thONTzHvAQTm7MkxNFuJ-9" value="Make the changes" style="rounded=1;whiteSpace=wrap;html=1;fontSize=12;glass=0;strokeWidth=1;shadow=0;" parent="WIyWlLk6GJQsqaUBKTNV-1" vertex="1">
          <mxGeometry x="40" y="817" width="120" height="28" as="geometry"/>
        </mxCell>
        <mxCell id="thONTzHvAQTm7MkxNFuJ-12" value="" style="endArrow=block;html=1;endFill=0;exitX=0.5;exitY=1;exitDx=0;exitDy=0;rounded=0;edgeStyle=orthogonalEdgeStyle;entryX=0.5;entryY=1;entryDx=0;entryDy=0;" parent="WIyWlLk6GJQsqaUBKTNV-1" source="WlS0nSgw3Jyz-_eudb85-63" target="thONTzHvAQTm7MkxNFuJ-9" edge="1">
          <mxGeometry width="50" height="50" relative="1" as="geometry">
            <mxPoint x="273.44" y="1449" as="sourcePoint"/>
            <mxPoint x="90" y="1100" as="targetPoint"/>
            <Array as="points">
              <mxPoint x="270" y="1410"/>
              <mxPoint x="100" y="1410"/>
            </Array>
          </mxGeometry>
        </mxCell>
        <mxCell id="thONTzHvAQTm7MkxNFuJ-13" value="No" style="text;html=1;align=center;verticalAlign=middle;resizable=0;points=[];autosize=1;labelBackgroundColor=#ffffff;" parent="WIyWlLk6GJQsqaUBKTNV-1" vertex="1">
          <mxGeometry x="255.06" y="1380" width="30" height="20" as="geometry"/>
        </mxCell>
        <mxCell id="thONTzHvAQTm7MkxNFuJ-14" value="" style="endArrow=block;html=1;entryX=0;entryY=0.5;entryDx=0;entryDy=0;rounded=0;endFill=0;" parent="WIyWlLk6GJQsqaUBKTNV-1" target="WlS0nSgw3Jyz-_eudb85-22" edge="1">
          <mxGeometry width="50" height="50" relative="1" as="geometry">
            <mxPoint x="160" y="830.71" as="sourcePoint"/>
            <mxPoint x="370" y="830.71" as="targetPoint"/>
          </mxGeometry>
        </mxCell>
        <mxCell id="thONTzHvAQTm7MkxNFuJ-15" value="" style="endArrow=block;html=1;endFill=0;rounded=0;edgeStyle=orthogonalEdgeStyle;entryX=0.5;entryY=1;entryDx=0;entryDy=0;" parent="WIyWlLk6GJQsqaUBKTNV-1" target="thONTzHvAQTm7MkxNFuJ-9" edge="1">
          <mxGeometry width="50" height="50" relative="1" as="geometry">
            <mxPoint x="280" y="1010" as="sourcePoint"/>
            <mxPoint x="110.14285714285711" y="855.1428571428571" as="targetPoint"/>
            <Array as="points">
              <mxPoint x="280" y="1110"/>
              <mxPoint x="100" y="1110"/>
            </Array>
          </mxGeometry>
        </mxCell>
        <mxCell id="WlS0nSgw3Jyz-_eudb85-15" value="Yes" style="text;html=1;align=center;verticalAlign=middle;resizable=0;points=[];autosize=1;fillColor=#ffffff;" parent="WIyWlLk6GJQsqaUBKTNV-1" vertex="1">
          <mxGeometry x="181" y="260" width="40" height="20" as="geometry"/>
        </mxCell>
        <mxCell id="mFHTGrnAapDMdwFzUga4-0" value="" style="endArrow=block;html=1;rounded=0;endFill=0;" parent="WIyWlLk6GJQsqaUBKTNV-1" edge="1">
          <mxGeometry width="50" height="50" relative="1" as="geometry">
            <mxPoint x="249" y="209.5" as="sourcePoint"/>
            <mxPoint x="300" y="210" as="targetPoint"/>
          </mxGeometry>
        </mxCell>
        <mxCell id="GRO3PZ2oIofHFS6x7ogk-5" value="No" style="text;html=1;align=center;verticalAlign=middle;resizable=0;points=[];autosize=1;fillColor=#ffffff;" parent="WIyWlLk6GJQsqaUBKTNV-1" vertex="1">
          <mxGeometry x="368" y="933.25" width="30" height="20" as="geometry"/>
        </mxCell>
        <mxCell id="WlS0nSgw3Jyz-_eudb85-74" value="Yes" style="text;html=1;align=center;verticalAlign=middle;resizable=0;points=[];autosize=1;labelBackgroundColor=#ffffff;" parent="WIyWlLk6GJQsqaUBKTNV-1" vertex="1">
          <mxGeometry x="141" y="1299" width="40" height="20" as="geometry"/>
        </mxCell>
        <mxCell id="thONTzHvAQTm7MkxNFuJ-16" value="No" style="text;html=1;align=center;verticalAlign=middle;resizable=0;points=[];autosize=1;fillColor=#FFFFFF;" parent="WIyWlLk6GJQsqaUBKTNV-1" vertex="1">
          <mxGeometry x="265" y="1046" width="30" height="20" as="geometry"/>
        </mxCell>
        <mxCell id="WlS0nSgw3Jyz-_eudb85-63" value="&lt;div&gt;&lt;font style=&quot;font-size: 11px&quot;&gt;Major changes&lt;/font&gt;&lt;/div&gt;&lt;div&gt;&lt;font style=&quot;font-size: 11px&quot;&gt;(timelines or adding complexity to the campaign) &lt;/font&gt;&lt;/div&gt;" style="rhombus;whiteSpace=wrap;html=1;shadow=0;fontFamily=Helvetica;fontSize=12;align=center;strokeWidth=1;spacing=6;spacingTop=-4;labelBackgroundColor=none;fillColor=#ffff88;strokeColor=#36393d;" parent="WIyWlLk6GJQsqaUBKTNV-1" vertex="1">
          <mxGeometry x="190.12" y="1242.53" width="159.88" height="132.95" as="geometry"/>
        </mxCell>
        <mxCell id="GRO3PZ2oIofHFS6x7ogk-3" value="Text" style="text;html=1;align=center;verticalAlign=middle;resizable=0;points=[];autosize=1;" vertex="1" parent="WIyWlLk6GJQsqaUBKTNV-1">
          <mxGeometry x="86" y="374" width="40" height="20" as="geometry"/>
        </mxCell>
      </root>
    </mxGraphModel>
  </diagram>
</mxfile>
